<?xml version="1.0" encoding="utf-8"?>
<svg xmlns="http://www.w3.org/2000/svg" xmlns:xlink="http://www.w3.org/1999/xlink" width="1372"
    height="1372" viewBox="0 0 1372 1372">
    <path fill="#1FC1FA" transform="scale(0.669922 0.669922)"
        d="M89.2687 604.816C91.3385 598.208 97.8175 584.802 100.893 578.197C110.981 556.16 122.026 534.574 133.995 513.499C210.186 376.226 317.922 259.034 448.317 171.592C662.495 26.7974 925.586 -26.5724 1179.26 23.3162C1307.17 48.4752 1433.85 99.5652 1541.22 174.077C1554.71 184.802 1581.97 200.178 1590.77 214.913C1639.48 296.458 1667.29 446.071 1578.49 509.778C1562.78 521.042 1530.78 532.414 1511.45 528.018C1479.42 528.748 1445.51 490.007 1420.86 470.649C1402.24 455.931 1382.86 442.191 1362.81 429.484C1225.5 344.043 1062.46 309.736 902.352 332.593C860.662 338.521 830.159 348.697 790.542 357.748C779.704 361.873 767.626 365.122 756.351 369.222C735.456 377.006 715.001 385.924 695.078 395.937C554.259 467.319 442.647 585.45 379.364 730.089C368.191 754.852 358.345 780.193 349.865 806.003C347.277 813.92 342.055 834.699 339.824 840.16C328.981 888.208 322.45 918.655 318.442 969.02C306.76 1123.69 344.522 1278.07 426.279 1409.88C433.64 1421.51 441.329 1432.93 449.336 1444.12C558.291 1588.94 713.043 1686.67 893.513 1712.25C1076.3 1739.02 1262.22 1691.71 1409.97 1580.82C1435.3 1561.71 1459.25 1540.85 1481.64 1518.37C1492.27 1507.5 1502.49 1494.86 1512.7 1484.65C1603.74 1534.81 1711.09 1546.38 1810.73 1516.79C1835.41 1509.61 1855.39 1501.37 1878.4 1489.99C1835.21 1580.95 1766.33 1672.08 1695.34 1742.95C1689.97 1748.31 1666.72 1771.41 1662 1774.15C1648.71 1787.5 1628.93 1803.32 1614.17 1815.7C1414.93 1979.85 1159.1 2059.04 901.96 2036.15C804.161 2026.73 695.247 1999.68 605.346 1959.28C602.173 1957.99 599.02 1956.66 595.889 1955.28C391.761 1863.77 223.726 1707.18 118.073 1510.01C105.061 1485.25 88.9617 1452.03 78.8997 1425.97C45.5935 1344.83 22.553 1259.84 10.3132 1172.99C7.4382 1152.06 5.08006 1131.07 3.24092 1110.03C2.45617 1101.02 2.13996 1084.48 0 1076.41L0 967.475C2.06038 960.602 2.3872 945.502 3.2042 937.654C5.23727 918.124 7.00446 898.604 9.86529 879.152C21.9304 799.036 42.8465 720.506 72.2297 645.002C76.3498 634.549 84.1438 613.802 89.2687 604.816Z" />
    <defs>
        <linearGradient id="gradient_0" gradientUnits="userSpaceOnUse" x1="1514.3214" y1="1986.131"
            x2="128.6956" y2="1213.3036">
            <stop offset="0" stop-color="#008BDD" />
            <stop offset="1" stop-color="#0EBFFF" />
        </linearGradient>
    </defs>
    <path fill="url(#gradient_0)" transform="scale(0.669922 0.669922)"
        d="M605.346 1959.28C603.577 1954.85 602.021 1953.13 597.694 1951.35C582.101 1944.87 566.79 1937.73 551.802 1929.95L551.669 1929.01C557.281 1928.14 556.988 1928.49 558.52 1923.5C566.096 1926.21 595.49 1949.89 602.448 1949.7C591.625 1942.97 580.894 1936.09 570.259 1929.07C545.61 1912.72 517.001 1892.02 494.823 1872.89C218.482 1634.51 181.989 1220.14 310.736 895.721C317.024 879.877 329.844 846.265 339.255 832.11C340.044 834.689 339.793 837.351 339.824 840.16C328.981 888.208 322.45 918.655 318.442 969.02C306.76 1123.69 344.522 1278.07 426.279 1409.88C433.64 1421.51 441.329 1432.93 449.336 1444.12C558.291 1588.94 713.043 1686.67 893.513 1712.25C1076.3 1739.02 1262.22 1691.71 1409.97 1580.82C1435.3 1561.71 1459.25 1540.85 1481.64 1518.37C1492.27 1507.5 1502.49 1494.86 1512.7 1484.65C1603.74 1534.81 1711.09 1546.38 1810.73 1516.79C1835.41 1509.61 1855.39 1501.37 1878.4 1489.99C1835.21 1580.95 1766.33 1672.08 1695.34 1742.95C1689.97 1748.31 1666.72 1771.41 1662 1774.15C1648.71 1787.5 1628.93 1803.32 1614.17 1815.7C1414.93 1979.85 1159.1 2059.04 901.96 2036.15C804.161 2026.73 695.247 1999.68 605.346 1959.28Z" />
    <path fill="#1FC1FA" transform="scale(0.669922 0.669922)"
        d="M449.336 1444.12C558.291 1588.94 713.043 1686.67 893.513 1712.25C1076.3 1739.02 1262.22 1691.71 1409.97 1580.82C1435.3 1561.71 1459.25 1540.85 1481.64 1518.37C1492.27 1507.5 1502.49 1494.86 1512.7 1484.65C1603.74 1534.81 1711.09 1546.38 1810.73 1516.79C1835.41 1509.61 1855.39 1501.37 1878.4 1489.99C1835.21 1580.95 1766.33 1672.08 1695.34 1742.95C1689.97 1748.31 1666.72 1771.41 1662 1774.15C1648.71 1787.5 1628.93 1803.32 1614.17 1815.7L1615.01 1809.82C1613.06 1806.07 1612.78 1806.92 1608.09 1804.53C1596.44 1809.4 1585.08 1816.78 1573.5 1822.1C1213.76 1987.22 745.531 1863.88 508.919 1548.06C499.023 1534.85 444.611 1458.27 446.417 1445.73L449.336 1444.12Z" />
    <path fill="#0182D1" transform="scale(0.669922 0.669922)"
        d="M1608.09 1804.53C1615.64 1799.1 1654.2 1776.27 1662 1774.15C1648.71 1787.5 1628.93 1803.32 1614.17 1815.7L1615.01 1809.82C1613.06 1806.07 1612.78 1806.92 1608.09 1804.53Z" />
    <path fill="#0182D1" transform="scale(0.669922 0.669922)"
        d="M89.2687 604.816C91.3385 598.208 97.8175 584.802 100.893 578.197C110.981 556.16 122.026 534.574 133.995 513.499C210.186 376.226 317.922 259.034 448.317 171.592C662.495 26.7974 925.586 -26.5724 1179.26 23.3162C1307.17 48.4752 1433.85 99.5652 1541.22 174.077C1554.71 184.802 1581.97 200.178 1590.77 214.913C1639.48 296.458 1667.29 446.071 1578.49 509.778C1562.78 521.042 1530.78 532.414 1511.45 528.018C1516.11 527.716 1519.88 527.482 1524.58 527.527C1497.61 489.715 1467.19 454.492 1433.7 422.311C1312.17 306.198 1147.5 229.853 982.045 203.838C746.753 167.671 506.739 226.585 314.935 367.586C255.903 410.355 202.399 460.275 155.648 516.206C141.178 533.576 127.57 551.645 114.873 570.35C110.215 577.162 94.8404 602.517 89.2687 604.816Z" />
    <defs>
        <linearGradient id="gradient_1" gradientUnits="userSpaceOnUse" x1="947.93683" y1="1062.0665"
            x2="51.03891" y2="1314.5356">
            <stop offset="0" stop-color="#007ACF" />
            <stop offset="1" stop-color="#04A1E9" />
        </linearGradient>
    </defs>
    <path fill="url(#gradient_1)" transform="scale(0.669922 0.669922)"
        d="M78.8997 1425.97L80.3826 1424.68C80.4715 1420.2 72.5004 1394.68 70.7455 1388.07C67.4138 1375.46 64.4135 1362.77 61.7478 1350C53.5434 1309.28 49.9411 1265.57 48.2665 1224.12C39.5016 1007.14 124.853 799.352 272.614 641.285C388.402 518.741 534.259 428.651 695.674 379.978C719.985 372.565 766.73 358.576 790.542 357.748C779.704 361.873 767.626 365.122 756.351 369.222C735.456 377.006 715.001 385.924 695.078 395.937C554.259 467.319 442.647 585.45 379.364 730.089C368.191 754.852 358.345 780.193 349.865 806.003C347.277 813.92 342.055 834.699 339.824 840.16C339.793 837.351 340.044 834.689 339.255 832.11C329.844 846.265 317.024 879.877 310.736 895.721C181.989 1220.14 218.482 1634.51 494.823 1872.89C517.001 1892.02 545.61 1912.72 570.259 1929.07C580.894 1936.09 591.625 1942.97 602.448 1949.7C595.49 1949.89 566.096 1926.21 558.52 1923.5C556.988 1928.49 557.281 1928.14 551.669 1929.01L551.802 1929.95C566.79 1937.73 582.101 1944.87 597.694 1951.35C602.021 1953.13 603.577 1954.85 605.346 1959.28C602.173 1957.99 599.02 1956.66 595.889 1955.28C391.761 1863.77 223.726 1707.18 118.073 1510.01C105.061 1485.25 88.9617 1452.03 78.8997 1425.97Z" />
    <defs>
        <linearGradient id="gradient_2" gradientUnits="userSpaceOnUse" x1="1930.1907" y1="1388.7693"
            x2="1363.3641" y2="458.82739">
            <stop offset="0" stop-color="#F45003" />
            <stop offset="1" stop-color="#F88909" />
        </linearGradient>
    </defs>
    <path fill="url(#gradient_2)" transform="scale(0.669922 0.669922)"
        d="M1675.57 256.302C1683.85 261.676 1692.82 269.332 1700.64 275.711C1736.67 305.023 1769.25 338.35 1797.73 375.047C1870.97 467.889 1906.65 584.865 1897.69 702.779C1892.67 768.443 1870.77 831.882 1868.14 897.271C1866.97 926.159 1895.86 962.793 1927.65 941.536C1963.13 917.812 1975.27 871.802 1984.82 832.358C1986.3 830.257 1987.04 829.166 1988.78 827.238L1990.42 827.599C1993.36 834.984 1990.26 839.849 1996.09 848.144C1997.67 865.529 2004.81 888.742 2008.99 905.83C2016.45 936.389 2025.52 967.864 2031.99 998.574C2035.69 1016.06 2039.05 1033.61 2042.07 1051.22C2043.05 1057.13 2046.51 1085.3 2048 1088.59L2048 1179.44C2045.92 1185.66 2042.6 1209.13 2040.67 1217.98C2033 1253.72 2018.68 1287.69 1998.47 1318.15C1946.16 1398.4 1858.59 1445.06 1766.77 1464.35C1765.27 1430.41 1766.93 1395.34 1766.23 1361.25C1765.9 1345.05 1765.96 1327.9 1766.39 1311.75C1795.3 1315.51 1829.63 1323.63 1859.84 1328.27C1828.11 1261.47 1796.76 1194.5 1765.8 1127.35L1731.26 1052.29C1722.49 1033.28 1711.86 1009.83 1701.3 991.929C1694.83 1001.2 1677.76 1038.47 1672.17 1050.44L1615.25 1173.4L1562.74 1283.17C1557 1295.12 1544.36 1317.54 1540.64 1328.7C1570.62 1321.99 1602.94 1317.93 1633.5 1312.11C1635.22 1359.5 1633.87 1415.97 1633.75 1463.96C1623.01 1462.45 1611.06 1459.36 1600.6 1456.41C1509.12 1430.58 1424.18 1368.09 1378.04 1284C1331.34 1197.62 1320.29 1096.4 1347.25 1001.98C1375.14 906.842 1439.73 826.701 1526.77 779.228C1496.07 829.721 1470.84 878.696 1481.63 940.584C1488.24 978.514 1508.9 1008.67 1540.14 1030.61C1520.93 921.15 1614.66 771.7 1658.51 672.593C1719.34 535.066 1739.47 396.694 1675.57 256.302Z" />
    <path fill="#F66805" fill-opacity="0.85490197" transform="scale(0.669922 0.669922)"
        d="M1990.17 808.325C1992.72 820.133 1994.59 835.918 1996.09 848.144C1990.26 839.849 1993.36 834.984 1990.42 827.599L1988.78 827.238C1987.04 829.166 1986.3 830.257 1984.82 832.358C1986.49 824.065 1988.11 816.524 1990.17 808.325Z" />
</svg>